<svg xmlns="http://www.w3.org/2000/svg" viewBox="0 0 64 64">
  <defs>
    <style>
      .bg { fill: #fbbf24; }
      .taxi { fill: #1e293b; }
    </style>
  </defs>
  <!-- Fond jaune -->
  <rect width="64" height="64" rx="12" class="bg"/>
  <!-- Icône de taxi simplifiée -->
  <path class="taxi" d="M20 28h24l-2-4h-20l-2 4zm-4 6v10h4v2h4v-2h16v2h4v-2h4V34l-2-6H18l-2 6zm6 6c-1.1 0-2-.9-2-2s.9-2 2-2 2 .9 2 2-.9 2-2 2zm20 0c-1.1 0-2-.9-2-2s.9-2 2-2 2 .9 2 2-.9 2-2 2z"/>
  <!-- Signe TAXI sur le toit -->
  <rect x="26" y="20" width="12" height="4" rx="1" class="taxi"/>
</svg>
